<svg xmlns="http://www.w3.org/2000/svg" width="920" height="360" viewBox="0 0 920 360" role="img" aria-label="May 2026 Model-A performance summary">
  <rect width="920" height="360" rx="22" fill="#f8fafc"/>
  <rect x="24" y="24" width="872" height="312" rx="18" fill="#ffffff" stroke="#dbe3ec"/>
  <text x="54" y="68" font-family="Arial, sans-serif" font-size="26" font-weight="700" fill="#111827">Model-A May 2026 Review</text>
  <text x="54" y="96" font-family="Arial, sans-serif" font-size="15" fill="#64748b">Capital-aware account tracking, 2026-05-06 to 2026-05-29</text>
  <g font-family="Arial, sans-serif">
    <rect x="54" y="126" width="180" height="76" rx="12" fill="#eef6ff"/>
    <text x="76" y="156" font-size="14" fill="#475569">Signal Days</text>
    <text x="76" y="186" font-size="30" font-weight="700" fill="#1d4ed8">18</text>
    <rect x="254" y="126" width="180" height="76" rx="12" fill="#f0fdf4"/>
    <text x="276" y="156" font-size="14" fill="#475569">Completed Trades</text>
    <text x="276" y="186" font-size="30" font-weight="700" fill="#15803d">40</text>
    <rect x="454" y="126" width="180" height="76" rx="12" fill="#fff7ed"/>
    <text x="476" y="156" font-size="14" fill="#475569">Skipped Entries</text>
    <text x="476" y="186" font-size="30" font-weight="700" fill="#c2410c">8</text>
    <rect x="654" y="126" width="180" height="76" rx="12" fill="#fef2f2"/>
    <text x="676" y="156" font-size="14" fill="#475569">Max Drawdown</text>
    <text x="676" y="186" font-size="30" font-weight="700" fill="#b91c1c">-9.61%</text>
    <text x="54" y="245" font-size="15" fill="#334155">Ending NAV</text>
    <rect x="54" y="262" width="760" height="26" rx="13" fill="#e5e7eb"/>
    <rect x="54" y="262" width="621" height="26" rx="13" fill="#2563eb"/>
    <text x="690" y="282" font-size="16" font-weight="700" fill="#111827">107,773.77</text>
    <text x="54" y="318" font-size="15" fill="#334155">Total Return</text>
    <rect x="154" y="300" width="230" height="28" rx="14" fill="#dcfce7"/>
    <text x="174" y="320" font-size="17" font-weight="700" fill="#166534">+7.7738%</text>
  </g>
</svg>
